<?xml version="1.0" encoding="UTF-8"?>
<svg width="400" height="300" viewBox="0 0 400 300" fill="none" xmlns="http://www.w3.org/2002000/svg">
    <!-- Background Circle -->
    <circle cx="200" cy="150" r="120" fill="#F3F4F6" />
    
    <!-- Clock Face -->
    <circle cx="200" cy="150" r="80" stroke="#9CA3AF" stroke-width="2" />
    <circle cx="200" cy="150" r="4" fill="#6B7280" />
    
    <!-- Clock Hands -->
    <line x1="200" y1="150" x2="200" y2="100" stroke="#6B7280" stroke-width="3" stroke-linecap="round" />
    <line x1="200" y1="150" x2="240" y2="150" stroke="#6B7280" stroke-width="2" stroke-linecap="round" />
    
    <!-- Video Icons -->
    <rect x="120" y="180" width="40" height="30" rx="4" fill="#E5E7EB" />
    <rect x="170" y="180" width="40" height="30" rx="4" fill="#E5E7EB" />
    <rect x="220" y="180" width="40" height="30" rx="4" fill="#E5E7EB" />
    <rect x="270" y="180" width="40" height="30" rx="4" fill="#E5E7EB" />
    
    <!-- Play Icons -->
    <path d="M130 195L150 195L140 185L130 195Z" fill="#9CA3AF" />
    <path d="M180 195L200 195L190 185L180 195Z" fill="#9CA3AF" />
    <path d="M230 195L250 195L240 185L230 195Z" fill="#9CA3AF" />
    <path d="M280 195L300 195L290 185L280 195Z" fill="#9CA3AF" />
</svg> 